<svg width="200" height="200" version="1.1" xmlns="http://www.w3.org/2000/svg" desc="Created with imagetracer.js version 1.2.6" ><path fill="rgb(251,251,251)" stroke="rgb(251,251,251)" stroke-width="1" opacity="0.996078431372549" d="M 126.5 45 L 128 45.5 L 126 46.5 L 126.5 48 L 125.5 47 L 121 50.5 L 126.5 45 Z " /><path fill="rgb(251,251,251)" stroke="rgb(251,251,251)" stroke-width="1" opacity="0.996078431372549" d="M 142.5 47 L 145.5 48 L 148 48.5 L 145.5 49 L 143.5 49 L 142.5 47 Z " /><path fill="rgb(251,251,251)" stroke="rgb(251,251,251)" stroke-width="1" opacity="0.996078431372549" d="M 154.5 49 L 160 49.5 L 154.5 50 L 154.5 49 Z " /><path fill="rgb(251,251,251)" stroke="rgb(251,251,251)" stroke-width="1" opacity="0.996078431372549" d="M 150.5 55 Q 155.8 53.8 157 56.5 L 155 57.5 L 155.5 56 Q 149.5 57.3 150.5 55 Z " /><path fill="rgb(251,251,251)" stroke="rgb(251,251,251)" stroke-width="1" opacity="0.996078431372549" d="M 118.5 57 L 119.5 59 L 118.5 57 Z " /><path fill="rgb(251,251,251)" stroke="rgb(251,251,251)" stroke-width="1" opacity="0.996078431372549" d="M 161.5 57 L 156.5 63 L 161.5 57 Z " /><path fill="rgb(251,251,251)" stroke="rgb(251,251,251)" stroke-width="1" opacity="0.996078431372549" d="M 145.5 58 L 147 58.5 L 142 61.5 Q 144.8 63.3 140.5 65 L 140 63 L 142 62.5 L 141.5 59 L 143.5 60 L 145.5 58 Z " /><path fill="rgb(251,251,251)" stroke="rgb(251,251,251)" stroke-width="1" opacity="0.996078431372549" d="M 151.5 58 L 154 58.5 L 151.5 59 L 151.5 58 Z " /><path fill="rgb(251,251,251)" stroke="rgb(251,251,251)" stroke-width="1" opacity="0.996078431372549" d="M 53.5 61 L 54.5 63 L 53.5 61 Z " /><path fill="rgb(251,251,251)" stroke="rgb(251,251,251)" stroke-width="1" opacity="0.996078431372549" d="M 49.5 62 L 48.5 66 Q 46.3 65.3 47 67.5 L 46 67.5 L 49.5 62 Z " /><path fill="rgb(251,251,251)" stroke="rgb(251,251,251)" stroke-width="1" opacity="0.996078431372549" d="M 116.5 63 L 118 68.5 L 116 67.5 L 116.5 63 Z " /><path fill="rgb(251,251,251)" stroke="rgb(251,251,251)" stroke-width="1" opacity="0.996078431372549" d="M 147.5 64 L 150 65.5 L 148.5 66 L 147.5 64 Z " /><path fill="rgb(251,251,251)" stroke="rgb(251,251,251)" stroke-width="1" opacity="0.996078431372549" d="M 138.5 66 L 138 67.5 L 136.5 70 Q 133.5 68.5 136.5 67 L 138.5 66 Z " /><path fill="rgb(251,251,251)" stroke="rgb(251,251,251)" stroke-width="1" opacity="0.996078431372549" d="M 45.5 69 L 46 76.5 L 45 76.5 L 45.5 69 Z " /><path fill="rgb(251,251,251)" stroke="rgb(251,251,251)" stroke-width="1" opacity="0.996078431372549" d="M 117.5 71 L 119 73.5 L 117 72.5 L 117.5 71 Z " /><path fill="rgb(251,251,251)" stroke="rgb(251,251,251)" stroke-width="1" opacity="0.996078431372549" d="M 116.5 74 L 117.5 76 L 115.5 77 L 115 75.5 L 116.5 74 Z " /><path fill="rgb(251,251,251)" stroke="rgb(251,251,251)" stroke-width="1" opacity="0.996078431372549" d="M 140.5 75 L 143 75.5 L 140.5 76 L 140.5 75 Z " /><path fill="rgb(251,251,251)" stroke="rgb(251,251,251)" stroke-width="1" opacity="0.996078431372549" d="M 53.5 77 L 57 81.5 L 53.5 79 L 52 78.5 L 53.5 77 Z " /><path fill="rgb(251,251,251)" stroke="rgb(251,251,251)" stroke-width="1" opacity="0.996078431372549" d="M 113.5 77 L 112.5 79 L 111 78.5 L 113.5 77 Z " /><path fill="rgb(251,251,251)" stroke="rgb(251,251,251)" stroke-width="1" opacity="0.996078431372549" d="M 140.5 77 L 141 80.5 L 140 80.5 L 140.5 77 Z " /><path fill="rgb(251,251,251)" stroke="rgb(251,251,251)" stroke-width="1" opacity="0.996078431372549" d="M 47.5 78 L 46.5 80 L 47.5 78 Z " /><path fill="rgb(251,251,251)" stroke="rgb(251,251,251)" stroke-width="1" opacity="0.996078431372549" d="M 108.5 79 L 111 80.5 L 109.5 80 L 108.5 79 Z " /><path fill="rgb(251,251,251)" stroke="rgb(251,251,251)" stroke-width="1" opacity="0.996078431372549" d="M 97.5 81 L 103 81.5 L 97.5 82 L 97.5 81 Z " /><path fill="rgb(251,251,251)" stroke="rgb(251,251,251)" stroke-width="1" opacity="0.996078431372549" d="M 69.5 82 L 92 82.5 L 69.5 83 L 65.5 84 L 65.5 83 L 69.5 82 Z " /><path fill="rgb(251,251,251)" stroke="rgb(251,251,251)" stroke-width="1" opacity="0.996078431372549" d="M 48.5 83 L 55 90.5 L 54 90.5 L 48.5 83 Z " /><path fill="rgb(251,251,251)" stroke="rgb(251,251,251)" stroke-width="1" opacity="0.996078431372549" d="M 141.5 85 L 142 88.5 L 141 88.5 L 141.5 85 Z " /><path fill="rgb(251,251,251)" stroke="rgb(251,251,251)" stroke-width="1" opacity="0.996078431372549" d="M 53.5 92 L 55 92.5 L 52 94.5 L 51.5 96 L 51 94.5 L 53.5 92 Z " /><path fill="rgb(251,251,251)" stroke="rgb(251,251,251)" stroke-width="1" opacity="0.996078431372549" d="M 142.5 93 L 143 95.5 L 142 95.5 L 142.5 93 Z " /><path fill="rgb(251,251,251)" stroke="rgb(251,251,251)" stroke-width="1" opacity="0.996078431372549" d="M 139.5 99 Q 142.5 100.5 139.5 102 L 139.5 99 Z " /><path fill="rgb(251,251,251)" stroke="rgb(251,251,251)" stroke-width="1" opacity="0.996078431372549" d="M 49.5 101 L 50 105.5 L 47.5 109 L 47 107.5 Q 50.1 106 49.5 101 Z " /><path fill="rgb(251,251,251)" stroke="rgb(251,251,251)" stroke-width="1" opacity="0.996078431372549" d="M 138.5 103 L 138 104.5 L 134.5 109 L 137 105.5 L 136.5 104 L 138.5 103 Z " /><path fill="rgb(251,251,251)" stroke="rgb(251,251,251)" stroke-width="1" opacity="0.996078431372549" d="M 75.5 110 L 83 110.5 L 73.5 112 L 73.5 111 L 75.5 110 Z " /><path fill="rgb(251,251,251)" stroke="rgb(251,251,251)" stroke-width="1" opacity="0.996078431372549" d="M 132.5 110 L 130.5 113 L 132.5 110 Z " /><path fill="rgb(251,251,251)" stroke="rgb(251,251,251)" stroke-width="1" opacity="0.996078431372549" d="M 87.5 111 L 90 111.5 L 87.5 112 L 87.5 111 Z " /><path fill="rgb(251,251,251)" stroke="rgb(251,251,251)" stroke-width="1" opacity="0.996078431372549" d="M 92.5 112 L 95 112.5 L 92.5 113 L 92.5 112 Z " /><path fill="rgb(251,251,251)" stroke="rgb(251,251,251)" stroke-width="1" opacity="0.996078431372549" d="M 55.5 113 L 57.5 114 L 59 113.5 Q 59.8 115.8 57.5 115 L 55.5 113 Z " /><path fill="rgb(251,251,251)" stroke="rgb(251,251,251)" stroke-width="1" opacity="0.996078431372549" d="M 128.5 113 L 129 115 L 127 114.5 L 128.5 113 Z " /><path fill="rgb(251,251,251)" stroke="rgb(251,251,251)" stroke-width="1" opacity="0.996078431372549" d="M 105.5 114 L 104.5 116 L 103 115.5 L 105.5 114 Z " /><path fill="rgb(251,251,251)" stroke="rgb(251,251,251)" stroke-width="1" opacity="0.996078431372549" d="M 68 115 Q 71 114 70 117 Q 67 118 68 115 Z " /><path fill="rgb(251,251,251)" stroke="rgb(251,251,251)" stroke-width="1" opacity="0.996078431372549" d="M 46.5 116 L 47 120.5 L 46 120.5 L 46.5 116 Z " /><path fill="rgb(251,251,251)" stroke="rgb(251,251,251)" stroke-width="1" opacity="0.996078431372549" d="M 106.5 116 L 109 116.5 L 106.5 117 L 106.5 116 Z " /><path fill="rgb(251,251,251)" stroke="rgb(251,251,251)" stroke-width="1" opacity="0.996078431372549" d="M 59.5 117 L 61.5 120 L 59.5 117 Z " /><path fill="rgb(251,251,251)" stroke="rgb(251,251,251)" stroke-width="1" opacity="0.996078431372549" d="M 111.5 117 L 115 117.5 L 111.5 118 L 111.5 117 Z " /><path fill="rgb(251,251,251)" stroke="rgb(251,251,251)" stroke-width="1" opacity="0.996078431372549" d="M 121.5 117 L 121 118.5 L 120.5 121 L 120 118.5 L 121.5 117 Z " /><path fill="rgb(251,251,251)" stroke="rgb(251,251,251)" stroke-width="1" opacity="0.996078431372549" d="M 115.5 119 L 116 121.5 L 115 121.5 L 115.5 119 Z " /><path fill="rgb(251,251,251)" stroke="rgb(251,251,251)" stroke-width="1" opacity="0.996078431372549" d="M 117.5 122 L 117.5 124 L 119 124.5 L 117.5 125 Q 114.5 123.5 117.5 122 Z " /><path fill="rgb(251,251,251)" stroke="rgb(251,251,251)" stroke-width="1" opacity="0.996078431372549" d="M 128.5 123 L 131 124.5 L 129.5 125 L 128.5 123 Z " /><path fill="rgb(251,251,251)" stroke="rgb(251,251,251)" stroke-width="1" opacity="0.996078431372549" d="M 51.5 125 L 54 125.5 L 51.5 126 L 51.5 125 Z " /><path fill="rgb(251,251,251)" stroke="rgb(251,251,251)" stroke-width="1" opacity="0.996078431372549" d="M 120.5 125 L 128 125.5 L 120.5 126 L 120.5 125 Z " /><path fill="rgb(251,251,251)" stroke="rgb(251,251,251)" stroke-width="1" opacity="0.996078431372549" d="M 60.5 130 L 63 130.5 L 60.5 131 L 60.5 130 Z " /><path fill="rgb(251,251,251)" stroke="rgb(251,251,251)" stroke-width="1" opacity="0.996078431372549" d="M 74.5 130 L 77 130.5 L 74.5 131 L 74.5 130 Z " /><path fill="rgb(251,251,251)" stroke="rgb(251,251,251)" stroke-width="1" opacity="0.996078431372549" d="M 65.5 135 L 66 139.5 L 65 139.5 L 65.5 135 Z " /><path fill="rgb(251,251,251)" stroke="rgb(251,251,251)" stroke-width="1" opacity="0.996078431372549" d="M 79.5 135 L 80 150.5 L 79 150.5 L 79.5 135 Z " /><path fill="rgb(251,251,251)" stroke="rgb(251,251,251)" stroke-width="1" opacity="0.996078431372549" d="M 89.5 135 L 93 135.5 L 89.5 136 L 89.5 135 Z " /><path fill="rgb(251,251,251)" stroke="rgb(251,251,251)" stroke-width="1" opacity="0.996078431372549" d="M 110.5 135 L 114 135.5 L 110.5 136 L 110.5 135 Z " /><path fill="rgb(251,251,251)" stroke="rgb(251,251,251)" stroke-width="1" opacity="0.996078431372549" d="M 128.5 135 L 131 135.5 L 128.5 136 L 128.5 135 Z " /><path fill="rgb(251,251,251)" stroke="rgb(251,251,251)" stroke-width="1" opacity="0.996078431372549" d="M 73.5 136 L 74 138.5 L 73 138.5 L 73.5 136 Z " /><path fill="rgb(251,251,251)" stroke="rgb(251,251,251)" stroke-width="1" opacity="0.996078431372549" d="M 115.5 136 L 114.5 138 L 115.5 136 Z " /><path fill="rgb(251,251,251)" stroke="rgb(251,251,251)" stroke-width="1" opacity="0.996078431372549" d="M 85.5 137 L 83 140.5 L 83.5 142 L 82 140.5 L 85.5 137 Z " /><path fill="rgb(251,251,251)" stroke="rgb(251,251,251)" stroke-width="1" opacity="0.996078431372549" d="M 124.5 137 L 123.5 139 L 124.5 137 Z " /><path fill="rgb(251,251,251)" stroke="rgb(251,251,251)" stroke-width="1" opacity="0.996078431372549" d="M 117.5 138 Q 122.3 140.2 121 148.5 L 118 150.5 Q 121 148.5 120 142.5 L 117.5 138 Z " /><path fill="rgb(251,251,251)" stroke="rgb(251,251,251)" stroke-width="1" opacity="0.996078431372549" d="M 135.5 138 L 136.5 140 L 135.5 138 Z " /><path fill="rgb(251,251,251)" stroke="rgb(251,251,251)" stroke-width="1" opacity="0.996078431372549" d="M 89.5 140 L 94 141.5 L 92 142.5 Q 92.7 139.5 89 141 L 88.5 148 L 88 141.5 L 89.5 140 Z " /><path fill="rgb(251,251,251)" stroke="rgb(251,251,251)" stroke-width="1" opacity="0.996078431372549" d="M 128.5 140 Q 132.3 138.8 131 142.5 L 130 142.5 Q 130.7 139.9 128 141 L 127.5 143 L 127 141.5 L 128.5 140 Z " /><path fill="rgb(251,251,251)" stroke="rgb(251,251,251)" stroke-width="1" opacity="0.996078431372549" d="M 109.5 141 L 113 142.5 L 111.5 142 Q 108.5 142.5 109.5 141 Z " /><path fill="rgb(251,251,251)" stroke="rgb(251,251,251)" stroke-width="1" opacity="0.996078431372549" d="M 100.5 143 L 101 147.5 L 100 147.5 L 100.5 143 Z " /><path fill="rgb(251,251,251)" stroke="rgb(251,251,251)" stroke-width="1" opacity="0.996078431372549" d="M 65.5 145 L 66 148.5 L 65 148.5 L 65.5 145 Z " /><path fill="rgb(251,251,251)" stroke="rgb(251,251,251)" stroke-width="1" opacity="0.996078431372549" d="M 127.5 147 Q 128.8 149.8 133 149.5 L 129.5 150 L 127.5 147 Z " /><path fill="rgb(251,251,251)" stroke="rgb(251,251,251)" stroke-width="1" opacity="0.996078431372549" d="M 89.5 149 L 90.5 151 L 89.5 149 Z " /><path fill="rgb(251,251,251)" stroke="rgb(251,251,251)" stroke-width="1" opacity="0.996078431372549" d="M 112.5 149 L 113 151 L 110 150.5 L 112.5 149 Z " /><path fill="rgb(251,251,251)" stroke="rgb(251,251,251)" stroke-width="1" opacity="0.996078431372549" d="M 136.5 149 L 137.5 151 L 136.5 149 Z " /><path fill="rgb(251,251,251)" stroke="rgb(251,251,251)" stroke-width="1" opacity="0.996078431372549" d="M 82.5 150 L 83.5 152 L 82.5 150 Z " /><path fill="rgb(251,251,251)" stroke="rgb(251,251,251)" stroke-width="1" opacity="0.996078431372549" d="M 121.5 150 L 125 152.5 L 123.5 152 L 121.5 150 Z " /><path fill="rgb(251,251,251)" stroke="rgb(251,251,251)" stroke-width="1" opacity="0.996078431372549" d="M 88.5 155 L 93 155.5 L 88.5 156 L 88.5 155 Z " /><path fill="rgb(251,251,251)" stroke="rgb(251,251,251)" stroke-width="1" opacity="0.996078431372549" d="M 108.5 155 L 113 155.5 L 108.5 156 L 108.5 155 Z " /><path fill="rgb(251,251,251)" stroke="rgb(251,251,251)" stroke-width="1" opacity="0.996078431372549" d="M 127.5 155 L 132 155.5 L 127.5 156 L 127.5 155 Z " /><path fill="rgb(255,255,255)" stroke="rgb(255,255,255)" stroke-width="1" opacity="0.996078431372549" d="M 81.5 0 L 84 0.5 L 81.5 1 L 81.5 0 Z " /><path fill="rgb(255,255,255)" stroke="rgb(255,255,255)" stroke-width="1" opacity="0.996078431372549" d="M 115.5 67 L 116.5 69 Q 113.7 69.7 115.5 67 Z " /><path fill="rgb(255,255,255)" stroke="rgb(255,255,255)" stroke-width="1" opacity="0.996078431372549" d="M 113.5 74 L 114.5 76 Q 111.7 76.7 113.5 74 Z " /><path fill="rgb(255,255,255)" stroke="rgb(255,255,255)" stroke-width="1" opacity="0.996078431372549" d="M 108.5 76 L 112 76.5 L 108.5 77 L 108.5 76 Z " /><path fill="rgb(255,255,255)" stroke="rgb(255,255,255)" stroke-width="1" opacity="0.996078431372549" d="M 92.5 80 L 95 80.5 L 92.5 81 L 92.5 80 Z " /><path fill="rgb(255,255,255)" stroke="rgb(255,255,255)" stroke-width="1" opacity="0.996078431372549" d="M 96.5 80 L 99 80.5 L 96.5 81 L 96.5 80 Z " /><path fill="rgb(255,255,255)" stroke="rgb(255,255,255)" stroke-width="1" opacity="0.996078431372549" d="M 53.5 87 Q 56.5 88.5 53.5 90 L 53.5 87 Z " /><path fill="rgb(255,255,255)" stroke="rgb(255,255,255)" stroke-width="1" opacity="0.996078431372549" d="M 48.5 102 L 49 103.5 L 47.5 106 L 47 104.5 L 48.5 102 Z " /><path fill="rgb(255,255,255)" stroke="rgb(255,255,255)" stroke-width="1" opacity="0.996078431372549" d="M 69.5 106 L 68.5 108 L 69.5 106 Z " /><path fill="rgb(255,255,255)" stroke="rgb(255,255,255)" stroke-width="1" opacity="0.996078431372549" d="M 46.5 114 L 47.5 116 L 46.5 114 Z " /><path fill="rgb(255,255,255)" stroke="rgb(255,255,255)" stroke-width="1" opacity="0.996078431372549" d="M 61.5 114 L 64 114.5 Q 61.9 117.8 61.5 114 Z " /><path fill="rgb(255,255,255)" stroke="rgb(255,255,255)" stroke-width="1" opacity="0.996078431372549" d="M 67.5 116 L 68.5 118 L 67.5 116 Z " /><path fill="rgb(255,255,255)" stroke="rgb(255,255,255)" stroke-width="1" opacity="0.996078431372549" d="M 122.5 118 L 123.5 120 L 122.5 118 Z " /><path fill="rgb(255,255,255)" stroke="rgb(255,255,255)" stroke-width="1" opacity="0.996078431372549" d="M 118.5 123 Q 121.5 124.5 118.5 126 L 118.5 123 Z " /><path fill="rgb(255,255,255)" stroke="rgb(255,255,255)" stroke-width="1" opacity="0.996078431372549" d="M 130.5 123 Q 132.8 122.3 132 124.5 L 130.5 123 Z " /><path fill="rgb(255,255,255)" stroke="rgb(255,255,255)" stroke-width="1" opacity="0.996078431372549" d="M 55.5 133 Q 57.8 132.3 57 134.5 L 55.5 133 Z " /><path fill="rgb(255,255,255)" stroke="rgb(255,255,255)" stroke-width="1" opacity="0.996078431372549" d="M 130.5 139 L 131.5 141 L 130.5 139 Z " /><path fill="rgb(255,255,255)" stroke="rgb(255,255,255)" stroke-width="1" opacity="0.996078431372549" d="M 58.5 145 L 59 147.5 L 58 147.5 L 58.5 145 Z " /><path fill="rgb(255,255,255)" stroke="rgb(255,255,255)" stroke-width="1" opacity="0.996078431372549" d="M 66.5 152 L 67 154.5 L 66 154.5 L 66.5 152 Z " /><path fill="rgb(255,255,255)" stroke="rgb(255,255,255)" stroke-width="1" opacity="0.996078431372549" d="M 96.5 160 L 97.5 162 L 96.5 160 Z " /><path fill="rgb(255,255,255)" stroke="rgb(255,255,255)" stroke-width="1" opacity="0.996078431372549" d="M 106.5 164 L 109 164.5 L 106.5 165 L 106.5 164 Z " /><path fill="rgb(255,255,255)" stroke="rgb(255,255,255)" stroke-width="1" opacity="0.996078431372549" d="M 199.5 191 L 200 197.5 L 199 197.5 L 199.5 191 Z " /><path fill="rgb(255,255,255)" stroke="rgb(255,255,255)" stroke-width="1" opacity="0.996078431372549" d="M 89.5 199 L 93 199.5 L 89.5 200 L 89.5 199 Z " /><path fill="rgb(255,255,255)" stroke="rgb(255,255,255)" stroke-width="1" opacity="0.996078431372549" d="M 134.5 199 L 137 199.5 L 134.5 200 L 134.5 199 Z " /><path fill="rgb(255,255,255)" stroke="rgb(255,255,255)" stroke-width="1" opacity="1" d="M 0 0 L 11.5 0 L 13.5 1 L 16.5 0 L 24.5 1 L 29.5 0 L 31.5 1 L 32.5 0 L 49.5 0 L 51.5 0 L 56.5 1 L 57.5 0 L 77.5 0 L 79.5 0 L 83.5 1 Q 85 -1.5 90.5 0 L 92.5 1 L 95.5 0 L 97.5 0 Q 102.2 -1.3 103.5 1 L 107.5 0 L 111.5 0 Q 117.7 -1.8 119.5 1 L 120.5 0 L 140.5 0 L 142.5 0 L 156.5 0 L 157.5 1 L 161.5 0 L 163.5 1 L 165.5 0 L 167.5 1 L 171.5 0 L 173.5 0 L 184.5 0 L 185.5 1 L 186.5 0 L 197.5 0 L 200 0.5 L 200 49.5 L 199 50.5 L 200 51.5 L 200 77.5 L 200 79.5 L 200 90.5 L 199 91.5 L 200 92.5 L 200 101.5 L 199 104.5 L 200 106.5 L 200 108.5 L 200 122.5 L 199 123.5 L 200 124.5 L 200 134.5 L 200 136.5 L 200 190.5 Q 197.5 192 199 197.5 Q 201.3 198.8 198.5 200 L 188.5 200 L 187.5 199 L 186.5 200 L 147.5 200 L 145.5 199 Q 143.8 201.8 137.5 200 L 134.5 199 Q 133.3 201.2 128.5 200 L 126.5 199 L 125.5 200 L 93.5 200 L 89.5 199 L 88.5 200 L 65.5 200 L 63.5 200 L 0.5 200 L 0 199.5 L 0 0 Z M 127 45 Q 124 46 126 48 L 122 53 Q 118 54 121 56 Q 118 59 118 66 L 117 63 L 115 68 L 115 69 L 119 69 L 118 75 L 116 75 L 114 74 L 113 76 L 116 78 L 104 83 L 95 83 L 94 84 L 82 84 L 92 83 L 78 82 L 77 81 L 69 83 L 81 84 L 71 84 L 70 85 Q 62 87 59 84 L 57 82 Q 55 83 53 80 L 54 78 L 53 78 L 51 76 Q 49 65 54 62 L 52 60 L 49 61 L 51 62 L 50 62 L 50 64 L 47 65 L 48 67 L 46 67 L 47 69 L 47 74 L 46 70 L 45 70 L 46 77 L 47 75 L 47 77 L 46 80 L 48 80 L 49 83 L 49 85 Q 50 87 52 85 Q 54 86 52 88 L 55 91 L 56 89 L 56 91 L 54 92 L 54 94 Q 50 97 51 106 Q 50 108 49 106 L 47 109 L 45 110 L 47 110 L 47 112 Q 44 111 45 114 L 47 113 L 46 115 Q 50 116 48 122 L 46 123 L 55 125 L 58 123 L 57 119 L 54 118 L 56 114 L 59 115 L 64 122 Q 63 124 66 123 L 68 123 L 73 124 L 73 121 L 70 118 L 70 117 L 69 115 L 75 112 L 76 109 L 91 110 L 94 112 L 93 112 L 93 113 L 96 112 L 110 116 L 115 116 Q 118 117 117 123 L 117 125 Q 119 128 121 124 L 125 125 L 120 126 L 128 126 L 127 125 L 130 123 L 129 125 L 132 125 L 131 123 L 132 120 L 127 116 L 129 116 L 129 113 Q 130 108 135 109 L 134 108 Q 136 103 138 106 L 138 105 L 138 103 L 140 102 L 139 101 L 141 97 Q 143 91 140 90 L 142 89 L 142 85 L 141 88 L 139 81 L 140 78 L 140 81 L 141 81 L 141 77 Q 138 78 139 76 Q 140 73 144 74 Q 145 70 142 68 L 146 65 L 155 63 L 161 56 L 163 56 Q 164 53 161 54 L 161 51 L 146 50 L 138 45 Q 131 44 128 47 L 128 46 L 127 45 Z M 146 48 L 146 49 L 148 49 L 146 48 Z M 121 49 L 121 51 L 123 50 L 121 49 Z M 155 49 L 155 50 L 160 50 L 155 49 Z M 118 59 L 116 62 L 118 61 L 118 59 Z M 141 75 L 141 76 L 143 76 L 141 75 Z M 109 76 L 109 77 L 112 77 L 109 76 Z M 93 80 L 93 81 L 95 81 L 93 80 Z M 97 80 L 98 82 L 103 82 L 97 80 Z M 66 83 L 66 84 L 69 84 L 66 83 Z M 143 93 L 142 96 L 143 96 L 143 93 Z M 50 101 L 48 103 L 49 106 L 50 106 L 50 101 Z M 76 110 L 76 111 L 83 111 L 76 110 Z M 88 111 L 88 112 L 90 112 L 88 111 Z M 47 116 L 46 121 L 47 121 L 47 116 Z M 107 116 L 107 117 L 109 117 L 107 116 Z M 112 117 L 112 118 L 115 118 L 112 117 Z M 116 119 L 114 123 L 116 123 L 116 119 Z M 52 125 L 52 126 L 54 126 L 52 125 Z M 61 130 L 61 131 L 63 131 L 61 130 Z M 75 130 L 75 131 L 77 131 L 75 130 Z M 56 132 L 57 135 L 59 134 L 59 145 L 58 146 L 59 149 Q 60 153 57 152 L 58 154 L 66 154 L 67 155 L 67 152 L 64 152 L 64 144 L 66 144 L 67 143 L 74 143 L 73 147 L 74 151 L 70 153 L 72 154 L 80 154 L 78 151 L 78 134 L 81 133 L 71 132 Q 70 135 74 134 L 73 136 L 74 141 L 64 141 L 64 135 L 66 134 L 66 132 L 58 132 L 56 132 Z M 66 135 L 65 140 L 66 140 L 66 135 Z M 80 135 L 79 151 L 80 151 L 80 135 Z M 90 135 L 90 136 L 93 136 L 90 135 Z M 111 135 L 111 136 L 114 136 L 111 135 Z M 129 135 L 129 136 L 131 136 L 129 135 Z M 89 137 L 87 138 Q 81 140 83 150 L 83 152 L 88 154 Q 93 153 95 155 L 95 154 L 100 150 L 99 149 Q 98 143 100 142 L 94 137 L 89 137 Z M 105 137 L 101 138 Q 100 141 103 140 L 102 142 L 103 143 L 104 159 L 101 160 L 102 162 L 110 162 L 108 156 L 113 156 L 108 155 L 116 153 L 117 151 L 121 149 L 121 142 L 120 148 Q 120 140 115 137 Q 110 136 109 138 L 105 137 Z M 128 137 L 126 138 Q 120 140 122 150 L 122 152 L 127 154 Q 133 156 135 152 Q 137 153 136 151 L 137 149 L 130 151 Q 125 149 128 148 L 126 147 L 133 146 L 135 146 Q 137 145 136 141 Q 134 136 128 137 Z M 101 143 L 100 148 L 101 148 L 101 143 Z M 66 145 L 65 149 L 66 149 L 66 145 Z M 130 149 L 130 150 L 133 150 L 130 149 Z M 88 155 L 88 157 L 93 156 L 88 155 Z M 128 155 L 128 156 L 132 156 L 128 155 Z M 107 163 L 106 165 L 110 164 L 109 163 L 107 163 Z " /><path fill="rgb(255,255,255)" stroke="rgb(255,255,255)" stroke-width="1" opacity="1" d="M 151.5 54 L 155 54.5 L 151.5 55 L 151.5 54 Z " /><path fill="rgb(255,255,255)" stroke="rgb(255,255,255)" stroke-width="1" opacity="1" d="M 149.5 55 Q 150.7 57.3 155.5 56 L 157 55.5 L 155.5 59 L 151.5 58 L 151.5 59 L 153 59.5 Q 145.5 59 142 62.5 L 143 63.5 L 139 67.5 L 137.5 72 L 137 69.5 L 138 67 L 136 66.5 L 142 63.5 L 140 63 L 142.5 59 L 149.5 55 Z M 146 58 L 145 60 L 147 59 L 146 58 Z " /><path fill="rgb(255,255,255)" stroke="rgb(255,255,255)" stroke-width="1" opacity="1" d="M 76.5 106 L 88 106.5 L 76.5 107 L 76.5 106 Z " /><path fill="rgb(255,255,255)" stroke="rgb(255,255,255)" stroke-width="1" opacity="1" d="M 89.5 107 L 93 107.5 L 89.5 108 L 89.5 107 Z " /><path fill="rgb(255,255,255)" stroke="rgb(255,255,255)" stroke-width="1" opacity="1" d="M 64.5 115 L 66 120 L 70 120.5 L 66.5 121 L 63 116.5 L 64.5 115 Z " /><path fill="rgb(255,255,255)" stroke="rgb(255,255,255)" stroke-width="1" opacity="1" d="M 119 116 L 121 116.5 L 119.5 120 L 119 116 Z " /><path fill="rgb(255,255,255)" stroke="rgb(255,255,255)" stroke-width="1" opacity="1" d="M 121.5 118 L 122.5 121 L 124 121.5 L 120.5 122 L 121 120.5 L 121.5 118 Z " /><path fill="rgb(255,255,255)" stroke="rgb(255,255,255)" stroke-width="1" opacity="1" d="M 88.5 139 L 91 139.5 L 89 140.5 L 91.5 141 L 93 140.5 L 92 142.5 L 94 142.5 L 95 148.5 L 92.5 152 Q 88.5 152.5 88 149.5 L 87 140.5 L 88.5 139 Z M 89 141 L 88 148 L 89 148 L 89 141 Z " /><path fill="rgb(255,255,255)" stroke="rgb(255,255,255)" stroke-width="1" opacity="1" d="M 128.5 139 L 130 139.5 L 128 140.5 L 130 141 L 130.5 143 L 131.5 141 L 132 144 L 126 144 L 126 141.5 L 128.5 139 Z " /><path fill="rgb(255,255,255)" stroke="rgb(255,255,255)" stroke-width="1" opacity="1" d="M 108 140 Q 112.7 139 114 142.5 L 115 146.5 L 113.5 150 L 111.5 150 L 109 150.5 L 113 151.5 L 109.5 152 L 108 150.5 L 108 140 Z M 110 141 L 110 142 L 112 142 L 110 141 Z " /><path fill="rgb(244,244,244)" stroke="rgb(244,244,244)" stroke-width="1" opacity="0.9882352941176471" d="M 148.5 50 L 152 50.5 L 148.5 51 L 148.5 50 Z " /><path fill="rgb(244,244,244)" stroke="rgb(244,244,244)" stroke-width="1" opacity="0.9882352941176471" d="M 149.5 54 L 148.5 56 L 149.5 54 Z " /><path fill="rgb(244,244,244)" stroke="rgb(244,244,244)" stroke-width="1" opacity="0.9882352941176471" d="M 157.5 57 L 156.5 59 L 157.5 57 Z " /><path fill="rgb(244,244,244)" stroke="rgb(244,244,244)" stroke-width="1" opacity="0.9882352941176471" d="M 147.5 60 L 151 60.5 L 147.5 61 L 147.5 60 Z " /><path fill="rgb(244,244,244)" stroke="rgb(244,244,244)" stroke-width="1" opacity="0.9882352941176471" d="M 51.5 61 L 50.5 63 L 51.5 61 Z " /><path fill="rgb(244,244,244)" stroke="rgb(244,244,244)" stroke-width="1" opacity="0.9882352941176471" d="M 50.5 69 L 51 72.5 L 50 72.5 L 50.5 69 Z " /><path fill="rgb(244,244,244)" stroke="rgb(244,244,244)" stroke-width="1" opacity="0.9882352941176471" d="M 135.5 70 Q 138.9 69.1 137 74.5 L 136 74.5 L 135.5 70 Z " /><path fill="rgb(244,244,244)" stroke="rgb(244,244,244)" stroke-width="1" opacity="0.9882352941176471" d="M 62.5 85 L 65 85.5 L 62.5 86 L 62.5 85 Z " /><path fill="rgb(244,244,244)" stroke="rgb(244,244,244)" stroke-width="1" opacity="0.9882352941176471" d="M 56.5 89 L 57 90.5 L 55 91.5 L 56.5 89 Z " /><path fill="rgb(244,244,244)" stroke="rgb(244,244,244)" stroke-width="1" opacity="0.9882352941176471" d="M 78.5 105 L 85 105.5 L 78.5 106 L 78.5 105 Z " /><path fill="rgb(244,244,244)" stroke="rgb(244,244,244)" stroke-width="1" opacity="0.9882352941176471" d="M 67.5 108 L 66.5 110 L 67.5 108 Z " /><path fill="rgb(244,244,244)" stroke="rgb(244,244,244)" stroke-width="1" opacity="0.9882352941176471" d="M 59.5 115 L 60.5 117 L 59.5 115 Z " /><path fill="rgb(244,244,244)" stroke="rgb(244,244,244)" stroke-width="1" opacity="0.9882352941176471" d="M 53.5 116 L 55 118.5 L 53 117.5 L 53.5 116 Z " /><path fill="rgb(244,244,244)" stroke="rgb(244,244,244)" stroke-width="1" opacity="0.9882352941176471" d="M 65.5 117 L 64.5 119 L 65.5 117 Z " /><path fill="rgb(244,244,244)" stroke="rgb(244,244,244)" stroke-width="1" opacity="0.9882352941176471" d="M 71.5 132 L 72.5 134 L 71.5 132 Z " /><path fill="rgb(244,244,244)" stroke="rgb(244,244,244)" stroke-width="1" opacity="0.9882352941176471" d="M 59.5 135 L 60 150.5 L 59 150.5 L 59.5 135 Z " /><path fill="rgb(244,244,244)" stroke="rgb(244,244,244)" stroke-width="1" opacity="0.9882352941176471" d="M 112.5 140 L 113.5 142 L 112.5 140 Z " /><path fill="rgb(244,244,244)" stroke="rgb(244,244,244)" stroke-width="1" opacity="0.9882352941176471" d="M 64.5 141 L 74 141.5 L 64.5 142 L 64.5 141 Z " /><path fill="rgb(244,244,244)" stroke="rgb(244,244,244)" stroke-width="1" opacity="0.9882352941176471" d="M 103.5 141 L 104 150.5 L 103 150.5 L 103.5 141 Z " /><path fill="rgb(244,244,244)" stroke="rgb(244,244,244)" stroke-width="1" opacity="0.9882352941176471" d="M 107.5 141 L 108 149.5 L 107 149.5 L 107.5 141 Z " /><path fill="rgb(244,244,244)" stroke="rgb(244,244,244)" stroke-width="1" opacity="0.9882352941176471" d="M 126.5 145 L 133 145.5 L 126.5 146 L 126.5 145 Z " /><path fill="rgb(244,244,244)" stroke="rgb(244,244,244)" stroke-width="1" opacity="0.9882352941176471" d="M 109.5 150 L 108.5 152 L 109.5 150 Z " /><path fill="rgb(244,244,244)" stroke="rgb(244,244,244)" stroke-width="1" opacity="0.9882352941176471" d="M 57.5 153 L 66 153.5 L 57.5 154 L 57.5 153 Z " /><path fill="rgb(244,244,244)" stroke="rgb(244,244,244)" stroke-width="1" opacity="0.9882352941176471" d="M 71.5 153 L 80 153.5 L 71.5 154 L 71.5 153 Z " /><path fill="rgb(244,244,244)" stroke="rgb(244,244,244)" stroke-width="1" opacity="0.9882352941176471" d="M 107.5 153 L 108 158.5 L 107 158.5 L 107.5 153 Z " /><path fill="rgb(244,244,244)" stroke="rgb(244,244,244)" stroke-width="1" opacity="0.9882352941176471" d="M 101.5 160 L 110 161.5 L 102.5 162 L 101.5 160 Z " /><path fill="rgb(11,11,11)" stroke="rgb(11,11,11)" stroke-width="1" opacity="0.996078431372549" d="M 131.5 46 L 138.5 46 L 146.5 51 L 161 52 Q 160.6 59.1 154.5 62 L 145.5 64 L 142 66.5 L 143 73 L 139 73.5 L 139 88.5 L 140 89.5 L 140 97.5 Q 136 106.5 128.5 112 L 126 113.5 L 127.5 117 L 131 119.5 Q 132.3 123.3 128.5 122 L 127.5 123 L 118 123 L 112.5 104 L 112 107.5 L 114 115 L 104.5 114 L 89.5 109 L 74.5 109 L 73 112 L 65.5 115 L 61 114 L 66.5 122 L 72 121.5 L 66 117.5 L 66.5 116 L 68.5 119 Q 72.5 118.5 73 121.5 Q 71.8 124.3 66.5 123 L 59 113 Q 54.4 111.8 53 114.5 Q 51.1 119.9 54.5 119 L 57 123 L 50.5 123 L 49 121.5 L 49 116.5 L 47 110.5 L 52 104.5 L 52 99.5 L 57 89.5 L 48 78.5 L 48 68.5 L 51.5 62 L 52 63.5 Q 48.7 67.2 50 75.5 L 56.5 84 Q 60.1 86.9 67.5 86 L 68.5 85 L 79.5 85 L 80.5 84 L 102.5 84 Q 112.2 82.2 118 76.5 L 121 70.5 L 118 65.5 L 120 58.5 L 124 53.5 L 123 51.5 Q 125.8 47.3 131.5 46 Z M 139 48 L 141 50 Q 142 47 139 48 Z M 152 53 L 140 59 L 139 64 L 134 67 L 135 70 L 134 74 L 136 73 L 137 78 Q 139 77 138 72 L 144 63 L 146 61 L 154 61 L 159 57 Q 158 52 152 53 Z M 129 54 L 128 57 L 129 57 L 129 54 Z M 136 58 L 134 62 L 136 63 L 136 58 Z M 131 59 L 131 63 L 133 64 L 131 59 Z M 122 71 L 123 73 L 124 73 L 122 71 Z M 125 73 L 126 75 L 133 76 L 134 74 L 132 75 L 125 73 Z M 76 103 L 73 104 L 71 104 L 65 111 Q 70 105 80 104 L 76 103 Z M 77 105 L 71 108 L 91 108 L 103 112 L 105 112 L 89 105 L 77 105 Z M 124 106 L 122 109 L 123 117 L 126 118 L 123 113 L 124 109 L 124 106 Z M 60 112 L 60 113 L 62 113 L 60 112 Z M 118 115 L 119 121 Q 118 123 125 122 L 127 122 L 127 121 L 121 115 L 118 115 Z M 127 118 L 129 121 Q 131 122 130 120 L 127 118 Z " /><path fill="rgb(11,11,11)" stroke="rgb(11,11,11)" stroke-width="1" opacity="0.996078431372549" d="M 59.5 132 L 64 132.5 L 63 133.5 L 63 142 L 74 142 L 74 133.5 L 73.5 132 L 79 132.5 L 77 134.5 L 77 152 L 79 152.5 L 73.5 153 L 74 151.5 L 74 143 L 63 143 L 63 151.5 L 64.5 152 L 64.5 153 L 59 152.5 L 60 151.5 L 60 133.5 L 59.5 132 Z " /><path fill="rgb(11,11,11)" stroke="rgb(11,11,11)" stroke-width="1" opacity="0.996078431372549" d="M 87.5 138 L 89 138.5 L 87 139 Q 85.4 141.1 86 146.5 L 90 152.5 L 87.5 153 Q 83.1 150.9 83 144.5 L 87.5 138 Z " /><path fill="rgb(11,11,11)" stroke="rgb(11,11,11)" stroke-width="1" opacity="0.996078431372549" d="M 91.5 138 Q 96.3 138.3 98 141.5 Q 99.5 150.5 94.5 153 L 93 152.5 Q 97 150.5 95 142.5 L 92.5 139 L 91.5 138 Z " /><path fill="rgb(11,11,11)" stroke="rgb(11,11,11)" stroke-width="1" opacity="0.996078431372549" d="M 104.5 138 L 107 138.5 L 107 150.5 L 108.5 153 L 107 153.5 L 107 160 L 109 160.5 L 103.5 161 L 104 159.5 L 104 140.5 L 103 139.5 L 104.5 138 Z " /><path fill="rgb(11,11,11)" stroke="rgb(11,11,11)" stroke-width="1" opacity="0.996078431372549" d="M 109.5 138 Q 116.8 136.8 118 141.5 L 118 148.5 L 116 152 L 113.5 153 L 115 150.5 Q 117 141 111.5 139 L 108.5 140 L 109.5 138 Z " /><path fill="rgb(11,11,11)" stroke="rgb(11,11,11)" stroke-width="1" opacity="0.996078431372549" d="M 126.5 138 L 128 138.5 Q 124.5 139 125 143.5 L 125 145.5 L 127 151 L 132.5 152 L 135 150.5 Q 135.8 152.8 133.5 152 Q 132 154.5 126.5 153 L 124 152 L 122 144.5 L 126.5 138 Z " /><path fill="rgb(11,11,11)" stroke="rgb(11,11,11)" stroke-width="1" opacity="0.996078431372549" d="M 130.5 138 Q 134.5 137.5 135 140.5 L 136 145 L 131 144.5 L 133 144 L 132 139 L 130.5 138 Z " /><path fill="rgb(178,178,178)" stroke="rgb(178,178,178)" stroke-width="1" opacity="0.9921568627450981" d="M 139.5 46 L 142 47.5 L 141 50 L 138 48.5 L 141 47.5 L 139.5 46 Z " /><path fill="rgb(178,178,178)" stroke="rgb(178,178,178)" stroke-width="1" opacity="0.9921568627450981" d="M 125.5 48 L 123.5 51 L 125.5 48 Z " /><path fill="rgb(178,178,178)" stroke="rgb(178,178,178)" stroke-width="1" opacity="0.9921568627450981" d="M 155.5 51 L 160 51.5 L 155.5 52 L 155.5 51 Z " /><path fill="rgb(178,178,178)" stroke="rgb(178,178,178)" stroke-width="1" opacity="0.9921568627450981" d="M 122.5 52 L 125 52.5 L 121 55.5 L 122.5 52 Z " /><path fill="rgb(178,178,178)" stroke="rgb(178,178,178)" stroke-width="1" opacity="0.9921568627450981" d="M 151.5 53 L 155 53.5 L 151.5 54 L 151.5 53 Z " /><path fill="rgb(178,178,178)" stroke="rgb(178,178,178)" stroke-width="1" opacity="0.9921568627450981" d="M 128.5 54 L 132 60.5 L 130 61 L 128 56.5 L 128.5 54 Z " /><path fill="rgb(178,178,178)" stroke="rgb(178,178,178)" stroke-width="1" opacity="0.9921568627450981" d="M 156.5 54 L 160 57.5 L 155.5 62 L 155.5 59 Q 157.2 61.7 159 57.5 L 156.5 54 Z " /><path fill="rgb(178,178,178)" stroke="rgb(178,178,178)" stroke-width="1" opacity="0.9921568627450981" d="M 145.5 56 L 147 56.5 L 142.5 59 L 142.5 58 L 145.5 56 Z " /><path fill="rgb(178,178,178)" stroke="rgb(178,178,178)" stroke-width="1" opacity="0.9921568627450981" d="M 135.5 58 L 135 59.5 L 136 62.5 L 134 61.5 L 135.5 58 Z " /><path fill="rgb(178,178,178)" stroke="rgb(178,178,178)" stroke-width="1" opacity="0.9921568627450981" d="M 151.5 60 L 154 60.5 L 151.5 61 L 151.5 60 Z " /><path fill="rgb(178,178,178)" stroke="rgb(178,178,178)" stroke-width="1" opacity="0.9921568627450981" d="M 131.5 62 Q 133.8 61.3 133 63.5 L 134.5 66 L 136.5 65 L 136 66.5 L 134.5 69 L 131.5 62 Z " /><path fill="rgb(178,178,178)" stroke="rgb(178,178,178)" stroke-width="1" opacity="0.9921568627450981" d="M 139.5 63 L 138.5 65 L 139.5 63 Z " /><path fill="rgb(178,178,178)" stroke="rgb(178,178,178)" stroke-width="1" opacity="0.9921568627450981" d="M 142.5 64 Q 145.5 65.5 142.5 67 L 140 66.5 L 142.5 64 Z " /><path fill="rgb(178,178,178)" stroke="rgb(178,178,178)" stroke-width="1" opacity="0.9921568627450981" d="M 47.5 69 L 48 76.5 L 47 76.5 L 47.5 69 Z " /><path fill="rgb(178,178,178)" stroke="rgb(178,178,178)" stroke-width="1" opacity="0.9921568627450981" d="M 120.5 70 Q 124.1 74.4 131.5 75 L 134 74 L 135.5 71 L 136 72.5 Q 135 77 128.5 76 L 120.5 71 L 119.5 73 L 119 71.5 L 120.5 70 Z " /><path fill="rgb(178,178,178)" stroke="rgb(178,178,178)" stroke-width="1" opacity="0.9921568627450981" d="M 143.5 71 L 144 72.5 Q 143.3 74.8 139.5 74 L 139.5 73 Q 144 74.3 143.5 71 Z " /><path fill="rgb(178,178,178)" stroke="rgb(178,178,178)" stroke-width="1" opacity="0.9921568627450981" d="M 50.5 73 L 51 75.5 L 50 75.5 L 50.5 73 Z " /><path fill="rgb(178,178,178)" stroke="rgb(178,178,178)" stroke-width="1" opacity="0.9921568627450981" d="M 137.5 73 L 138 76.5 L 136 77.5 L 137.5 73 Z " /><path fill="rgb(178,178,178)" stroke="rgb(178,178,178)" stroke-width="1" opacity="0.9921568627450981" d="M 117.5 76 L 115.5 79 L 117.5 76 Z " /><path fill="rgb(178,178,178)" stroke="rgb(178,178,178)" stroke-width="1" opacity="0.9921568627450981" d="M 52.5 79 L 56.5 84 L 52.5 79 Z " /><path fill="rgb(178,178,178)" stroke="rgb(178,178,178)" stroke-width="1" opacity="0.9921568627450981" d="M 50.5 83 L 55.5 89 L 50.5 83 Z " /><path fill="rgb(178,178,178)" stroke="rgb(178,178,178)" stroke-width="1" opacity="0.9921568627450981" d="M 98.5 83 L 103 83.5 L 98.5 84 L 98.5 83 Z " /><path fill="rgb(178,178,178)" stroke="rgb(178,178,178)" stroke-width="1" opacity="0.9921568627450981" d="M 72.5 84 L 80 84.5 L 72.5 85 L 72.5 84 Z " /><path fill="rgb(178,178,178)" stroke="rgb(178,178,178)" stroke-width="1" opacity="0.9921568627450981" d="M 65.5 85 L 68 85.5 L 65.5 86 L 65.5 85 Z " /><path fill="rgb(178,178,178)" stroke="rgb(178,178,178)" stroke-width="1" opacity="0.9921568627450981" d="M 139.5 85 L 140 88.5 L 139 88.5 L 139.5 85 Z " /><path fill="rgb(178,178,178)" stroke="rgb(178,178,178)" stroke-width="1" opacity="0.9921568627450981" d="M 140.5 92 L 141 95.5 L 140 95.5 L 140.5 92 Z " /><path fill="rgb(178,178,178)" stroke="rgb(178,178,178)" stroke-width="1" opacity="0.9921568627450981" d="M 51.5 102 L 52 104.5 L 51 104.5 L 51.5 102 Z " /><path fill="rgb(178,178,178)" stroke="rgb(178,178,178)" stroke-width="1" opacity="0.9921568627450981" d="M 71.5 103 L 74.5 107 L 87 107.5 L 74.5 108 L 71.5 104 L 70 105.5 L 71.5 108 L 69.5 106 L 66 109.5 Q 66.8 111.8 64.5 111 L 59.5 113 L 59.5 112 L 63.5 111 L 71.5 103 Z " /><path fill="rgb(178,178,178)" stroke="rgb(178,178,178)" stroke-width="1" opacity="0.9921568627450981" d="M 75.5 103 L 80 103.5 L 76 104.5 L 78 105.5 L 76.5 106 L 74 104.5 L 75.5 103 Z " /><path fill="rgb(178,178,178)" stroke="rgb(178,178,178)" stroke-width="1" opacity="0.9921568627450981" d="M 112.5 104 L 115 112.5 L 113 111.5 L 112.5 104 Z " /><path fill="rgb(178,178,178)" stroke="rgb(178,178,178)" stroke-width="1" opacity="0.9921568627450981" d="M 85.5 105 L 89 105.5 L 85.5 106 L 85.5 105 Z " /><path fill="rgb(178,178,178)" stroke="rgb(178,178,178)" stroke-width="1" opacity="0.9921568627450981" d="M 135.5 105 L 129.5 112 L 135.5 105 Z " /><path fill="rgb(178,178,178)" stroke="rgb(178,178,178)" stroke-width="1" opacity="0.9921568627450981" d="M 123.5 106 L 124 108.5 L 123 112.5 L 123.5 114 Q 120.8 114.6 122 108.5 L 123.5 106 Z " /><path fill="rgb(178,178,178)" stroke="rgb(178,178,178)" stroke-width="1" opacity="0.9921568627450981" d="M 48.5 108 L 47.5 110 L 48.5 108 Z " /><path fill="rgb(178,178,178)" stroke="rgb(178,178,178)" stroke-width="1" opacity="0.9921568627450981" d="M 97.5 108 L 99 108.5 L 95.5 110 L 95.5 109 L 97.5 108 Z " /><path fill="rgb(178,178,178)" stroke="rgb(178,178,178)" stroke-width="1" opacity="0.9921568627450981" d="M 87.5 109 L 90 109.5 L 87.5 110 L 87.5 109 Z " /><path fill="rgb(178,178,178)" stroke="rgb(178,178,178)" stroke-width="1" opacity="0.9921568627450981" d="M 100.5 109 L 99.5 111 L 100.5 109 Z " /><path fill="rgb(178,178,178)" stroke="rgb(178,178,178)" stroke-width="1" opacity="0.9921568627450981" d="M 102.5 110 L 105 111.5 L 102 112 L 102.5 110 Z " /><path fill="rgb(178,178,178)" stroke="rgb(178,178,178)" stroke-width="1" opacity="0.9921568627450981" d="M 127.5 112 L 127 113.5 L 125.5 117 L 126 115.5 L 127.5 112 Z " /><path fill="rgb(178,178,178)" stroke="rgb(178,178,178)" stroke-width="1" opacity="0.9921568627450981" d="M 54.5 113 L 54 114.5 L 53.5 116 L 53 114.5 L 54.5 113 Z " /><path fill="rgb(178,178,178)" stroke="rgb(178,178,178)" stroke-width="1" opacity="0.9921568627450981" d="M 66.5 114 L 67 115.5 L 65 116.5 L 66.5 114 Z " /><path fill="rgb(178,178,178)" stroke="rgb(178,178,178)" stroke-width="1" opacity="0.9921568627450981" d="M 114.5 114 Q 117.1 113.3 116 116 L 111 115.5 L 114.5 114 Z " /><path fill="rgb(178,178,178)" stroke="rgb(178,178,178)" stroke-width="1" opacity="0.9921568627450981" d="M 61.5 115 Q 66 117 62.5 119 L 61 117.5 L 61.5 115 Z " /><path fill="rgb(178,178,178)" stroke="rgb(178,178,178)" stroke-width="1" opacity="0.9921568627450981" d="M 48.5 116 L 49 120.5 L 48 120.5 L 48.5 116 Z " /><path fill="rgb(178,178,178)" stroke="rgb(178,178,178)" stroke-width="1" opacity="0.9921568627450981" d="M 123.5 116 L 123.5 119 Q 120.5 117.5 123.5 116 Z " /><path fill="rgb(178,178,178)" stroke="rgb(178,178,178)" stroke-width="1" opacity="0.9921568627450981" d="M 67.5 117 L 70 118.5 L 68.5 119 L 66 118.5 L 67.5 117 Z " /><path fill="rgb(178,178,178)" stroke="rgb(178,178,178)" stroke-width="1" opacity="0.9921568627450981" d="M 118.5 117 L 119 119.5 L 117.5 122 L 117 120.5 L 118.5 117 Z " /><path fill="rgb(178,178,178)" stroke="rgb(178,178,178)" stroke-width="1" opacity="0.9921568627450981" d="M 129.5 117 Q 133 119 128.5 121 L 126.5 121 L 124 120.5 L 127 119.5 Q 126.3 117.3 128.5 118 L 129.5 117 Z " /><path fill="rgb(178,178,178)" stroke="rgb(178,178,178)" stroke-width="1" opacity="0.9921568627450981" d="M 55.5 119 L 56.5 121 L 55.5 119 Z " /><path fill="rgb(178,178,178)" stroke="rgb(178,178,178)" stroke-width="1" opacity="0.9921568627450981" d="M 71.5 119 L 73 120.5 L 72.5 123 Q 71.2 120.8 66.5 122 Q 65.3 124.2 64 121.5 Q 65.3 118.8 66.5 121 L 72 120.5 L 71.5 119 Z " /><path fill="rgb(178,178,178)" stroke="rgb(178,178,178)" stroke-width="1" opacity="0.9921568627450981" d="M 49.5 122 L 57 123.5 L 50.5 124 L 49.5 122 Z " /><path fill="rgb(178,178,178)" stroke="rgb(178,178,178)" stroke-width="1" opacity="0.9921568627450981" d="M 128.5 122 L 127.5 124 L 119 123.5 L 127.5 123 L 128.5 122 Z " /><path fill="rgb(178,178,178)" stroke="rgb(178,178,178)" stroke-width="1" opacity="0.9921568627450981" d="M 57.5 132 L 60 133.5 L 58.5 133 L 57.5 132 Z " /><path fill="rgb(178,178,178)" stroke="rgb(178,178,178)" stroke-width="1" opacity="0.9921568627450981" d="M 64.5 132 L 66 132.5 L 64 133 L 63.5 142 L 63 133.5 L 64.5 132 Z " /><path fill="rgb(178,178,178)" stroke="rgb(178,178,178)" stroke-width="1" opacity="0.9921568627450981" d="M 72.5 132 L 73.5 134 L 72.5 132 Z " /><path fill="rgb(178,178,178)" stroke="rgb(178,178,178)" stroke-width="1" opacity="0.9921568627450981" d="M 77.5 134 L 78 151.5 L 77 151.5 L 77.5 134 Z " /><path fill="rgb(178,178,178)" stroke="rgb(178,178,178)" stroke-width="1" opacity="0.9921568627450981" d="M 89 137 L 93 137.5 L 89 139 L 89 137 Z " /><path fill="rgb(178,178,178)" stroke="rgb(178,178,178)" stroke-width="1" opacity="0.9921568627450981" d="M 110.5 137 L 114 137.5 L 110.5 138 L 110.5 137 Z " /><path fill="rgb(178,178,178)" stroke="rgb(178,178,178)" stroke-width="1" opacity="0.9921568627450981" d="M 128 137 L 132 137.5 L 128 139 L 128 137 Z " /><path fill="rgb(178,178,178)" stroke="rgb(178,178,178)" stroke-width="1" opacity="0.9921568627450981" d="M 86.5 138 L 87.5 140 L 86.5 139 L 84 140.5 L 86.5 138 Z " /><path fill="rgb(178,178,178)" stroke="rgb(178,178,178)" stroke-width="1" opacity="0.9921568627450981" d="M 102 138 L 104 138.5 L 102 139.5 L 102 138 Z " /><path fill="rgb(178,178,178)" stroke="rgb(178,178,178)" stroke-width="1" opacity="0.9921568627450981" d="M 108.5 138 L 112 139.5 L 109.5 140 L 108 139.5 L 107.5 141 L 107 139.5 L 108.5 138 Z " /><path fill="rgb(178,178,178)" stroke="rgb(178,178,178)" stroke-width="1" opacity="0.9921568627450981" d="M 115.5 138 L 117.5 141 L 115.5 138 Z " /><path fill="rgb(178,178,178)" stroke="rgb(178,178,178)" stroke-width="1" opacity="0.9921568627450981" d="M 133.5 138 L 134.5 140 L 133.5 138 Z " /><path fill="rgb(178,178,178)" stroke="rgb(178,178,178)" stroke-width="1" opacity="0.9921568627450981" d="M 92.5 139 L 93.5 141 L 92.5 139 Z " /><path fill="rgb(178,178,178)" stroke="rgb(178,178,178)" stroke-width="1" opacity="0.9921568627450981" d="M 124.5 139 L 123.5 141 L 124.5 139 Z " /><path fill="rgb(178,178,178)" stroke="rgb(178,178,178)" stroke-width="1" opacity="0.9921568627450981" d="M 86.5 141 L 87 146.5 L 86 146.5 L 86.5 141 Z " /><path fill="rgb(178,178,178)" stroke="rgb(178,178,178)" stroke-width="1" opacity="0.9921568627450981" d="M 125.5 141 L 126 144 L 131 144.5 L 126 145 L 125.5 147 L 125 145.5 L 125 143.5 L 125.5 141 Z " /><path fill="rgb(178,178,178)" stroke="rgb(178,178,178)" stroke-width="1" opacity="0.9921568627450981" d="M 132.5 141 L 133 143.5 L 132 143.5 L 132.5 141 Z " /><path fill="rgb(178,178,178)" stroke="rgb(178,178,178)" stroke-width="1" opacity="0.9921568627450981" d="M 63.5 143 L 64 149.5 L 63 149.5 L 63.5 143 Z " /><path fill="rgb(178,178,178)" stroke="rgb(178,178,178)" stroke-width="1" opacity="0.9921568627450981" d="M 98.5 143 L 99 147.5 L 98 147.5 L 98.5 143 Z " /><path fill="rgb(178,178,178)" stroke="rgb(178,178,178)" stroke-width="1" opacity="0.9921568627450981" d="M 118.5 143 L 119 146.5 L 118 146.5 L 118.5 143 Z " /><path fill="rgb(178,178,178)" stroke="rgb(178,178,178)" stroke-width="1" opacity="0.9921568627450981" d="M 117.5 149 L 116.5 151 L 117.5 149 Z " /><path fill="rgb(178,178,178)" stroke="rgb(178,178,178)" stroke-width="1" opacity="0.9921568627450981" d="M 84.5 150 L 86.5 153 L 84.5 150 Z " /><path fill="rgb(178,178,178)" stroke="rgb(178,178,178)" stroke-width="1" opacity="0.9921568627450981" d="M 114.5 150 L 114.5 153 L 113 152.5 Q 113.9 155.9 108.5 154 L 109.5 152 Q 113.8 152.8 114.5 150 Z " /><path fill="rgb(178,178,178)" stroke="rgb(178,178,178)" stroke-width="1" opacity="0.9921568627450981" d="M 59.5 151 L 58.5 153 L 57 152.5 L 59.5 151 Z " /><path fill="rgb(178,178,178)" stroke="rgb(178,178,178)" stroke-width="1" opacity="0.9921568627450981" d="M 129.5 151 Q 133.3 150.3 134 152.5 L 132.5 152 Q 128.5 152.8 129.5 151 Z " /><path fill="rgb(178,178,178)" stroke="rgb(178,178,178)" stroke-width="1" opacity="0.9921568627450981" d="M 90.5 152 L 94 153.5 L 88.5 154 L 88.5 153 L 90.5 152 Z " /><path fill="rgb(178,178,178)" stroke="rgb(178,178,178)" stroke-width="1" opacity="0.9921568627450981" d="M 127.5 153 L 132 153.5 L 127.5 154 L 127.5 153 Z " /></svg>